<svg xmlns="http://www.w3.org/2000/svg" width="324" height="324" fill="none" xmlns:v="https://vecta.io/nano"><g fill-rule="evenodd"><path d="M204.276 221.456c23.457 23.458 23.457 61.492 0 84.95s-61.488 23.459-84.945 0l-42.473-42.475 33.978-33.98-17.267-17.269c3.164-2.131 6.171-4.594 8.969-7.393l8.808-8.809 16.48 16.481 33.977-33.98 42.473 42.475zm-59.462 8.495l22.652 22.653-16.989 16.99-22.651-22.653-16.99 16.99 25.483 25.485c14.074 14.075 36.894 14.075 50.968 0s14.074-36.895 0-50.97l-25.484-25.485-16.989 16.99z" fill="url(#A)"/><path d="M94.044 111.844l18.267-18.27c2.131 3.164 4.595 6.171 7.394 8.97l8.807 8.808-17.48 17.482 33.979 33.98-42.472 42.475c-23.457 23.459-61.489 23.459-84.946 0s-23.457-61.492 0-84.95l42.473-42.476 33.978 33.981zm-59.462 25.484c-14.074 14.075-14.074 36.896 0 50.971s36.893 14.075 50.968 0l25.483-25.485-16.988-16.991-22.653 22.654-16.989-16.99 22.653-22.653-16.989-16.99-25.484 25.484z" fill="url(#B)"/><path d="M119.704 17.594c23.457-23.458 61.489-23.458 84.946 0l42.472 42.476-33.977 33.98 17.768 17.769c-3.341 2.204-6.51 4.776-9.451 7.716l-8.406 8.406-16.9-16.902-33.979 33.981-42.473-42.476c-23.456-23.458-23.457-61.492 0-84.95zm67.957 16.99c-14.074-14.075-36.893-14.075-50.968 0s-14.074 36.896 0 50.971l25.484 25.484 16.989-16.989-22.652-22.654 16.989-16.99 22.653 22.654 16.989-16.99-25.484-25.485z" fill="url(#C)"/><path d="M221.462 119.534c23.457-23.458 61.488-23.458 84.945 0s23.457 61.493 0 84.952l-42.472 42.474-33.978-33.98-17.951 17.951a60.38 60.38 0 0 0-7.73-9.475l-8.386-8.387 17.078-17.079-33.979-33.98 42.473-42.476zm67.956 16.991c-14.074-14.075-36.892-14.075-50.967 0l-25.483 25.485L229.957 179l22.652-22.654 16.989 16.991-22.652 22.653 16.989 16.99 25.483-25.485c14.074-14.075 14.074-36.895 0-50.97z" fill="url(#D)"/></g><defs><linearGradient id="A" x1="202.023" y1="299.472" x2="100.407" y2="204.87" href="#E"><stop offset=".1" stop-color="#f2aa30"/><stop offset="1" stop-color="#985a09"/></linearGradient><linearGradient id="B" x1="24.526" y1="203.036" x2="119.135" y2="101.425" href="#E"><stop offset=".1" stop-color="#f2aa30"/><stop offset="1" stop-color="#985a09"/></linearGradient><linearGradient id="C" x1="121.957" y1="24.528" x2="223.574" y2="119.13" href="#E"><stop offset=".1" stop-color="#f2aa30"/><stop offset="1" stop-color="#985a09"/></linearGradient><linearGradient id="D" x1="299.474" y1="121.787" x2="204.865" y2="223.398" href="#E"><stop offset=".096" stop-color="#f2aa30"/><stop offset="1" stop-color="#985a09"/></linearGradient><linearGradient id="E" gradientUnits="userSpaceOnUse"/></defs></svg>